<?xml version="1.0" encoding="UTF-8"?>
<svg width="100mm" height="100mm" version="1.1" viewBox="0 0 100 100" xml:space="preserve" xmlns="http://www.w3.org/2000/svg"><g transform="translate(-62.646 -71.501)" fill="#65625d"><path d="m111.59 171.24c-0.14464-0.18111-1.0566-1.6965-2.0265-3.3676-1.9404-3.3429-11.567-19.812-16.354-27.978-11.51-19.635-11.608-19.815-12.94-23.83-2.2339-6.735-2.1834-14.97 0.13247-21.594 3.0513-8.7276 9.6519-16.022 17.981-19.869 7.4625-3.4477 16.32-4.0493 24.249-1.6469 11.788 3.5717 20.879 13.572 23.453 25.797 0.65756 3.1232 0.77565 8.5543 0.25872 11.9-0.51479 3.332-1.7678 7.2394-3.2785 10.224-0.60761 1.2004-3.6391 6.512-6.7367 11.804-5.9522 10.168-17.503 29.911-20.738 35.447-1.8561 3.1758-1.9556 3.2942-2.8308 3.3676-0.52574 0.0441-1.0177-0.0623-1.1701-0.25318zm4.788-48.842c1.993-0.4157 5.3609-2.0731 7.1271-3.5074 2.7746-2.2531 4.9611-5.6549 5.8655-9.1254 0.56065-2.1516 0.56092-6.1685 5.6e-4 -8.3562-1.5753-6.1498-6.3781-10.968-12.538-12.577-2.1768-0.56871-6.1785-0.56871-8.3553 0-6.1587 1.609-10.95 6.4146-12.541 12.578-0.55856 2.164-0.55494 6.1812 0.0077 8.3562 1.5543 6.0103 6.4449 10.891 12.534 12.509 1.6714 0.444 6.0358 0.51216 7.8997 0.12338z" fill="#65625d" stroke-width=".95694"/></g></svg>
