<?xml version="1.0" encoding="UTF-8"?>
<svg width="100mm" height="100mm" version="1.1" viewBox="0 0 100 100" xml:space="preserve" xmlns="http://www.w3.org/2000/svg"><g transform="translate(-57.966 -90.4)"><path d="m63.644 174.96c-1.9966-0.70666-4.6889-3.5373-5.2349-5.5038-0.59612-2.147-0.58751-55.992 0.0093-58.148 0.57377-2.0726 3.5436-5.0424 5.6161-5.6162 1.0991-0.30427 14.235-0.43054 44.323-0.42604 40.527 6e-3 42.843 0.0435 44.323 0.71782 2.0087 0.91484 4.3239 3.4882 4.8532 5.3944 0.58791 2.1172 0.57113 55.988-0.0181 58.116-0.57376 2.0726-3.5436 5.0424-5.6161 5.6161-1.0998 0.30447-14.158 0.42801-44.128 0.41747-35.687-0.0118-42.818-0.10435-44.128-0.56784zm81.488-7.9065c-1.2966-1.4498-6.8495-7.1151-12.34-12.59l-9.9824-9.9537-4.7853 4.7402c-2.6319 2.6071-5.4003 5.0594-6.152 5.4496-0.91056 0.47261-2.2141 0.70943-3.9051 0.70943-1.691 0-2.9946-0.23682-3.9051-0.70943-0.75173-0.3902-3.5217-2.8441-6.1555-5.4531l-4.7887-4.7436-10.441 10.515c-5.7427 5.7831-11.302 11.45-12.355 12.593l-1.9138 2.0783h79.082zm-68.699-39.246-12.593-12.593v50.373l25.186-25.186zm75.662 12.496v-25.09l-25.185 25.185 12.493 12.497c6.8709 6.8734 12.538 12.497 12.592 12.497 0.0549 0 0.0999-11.29 0.0999-25.09zm-42.644 8.9174c0.57999-0.30349 9.4017-8.9582 19.604-19.233l18.549-18.681-19.818-0.10125c-10.9-0.0556-28.737-0.0556-39.637 0l-19.818 0.10125 18.354 18.506c10.095 10.178 18.881 18.832 19.526 19.231 1.4081 0.8714 1.865 0.89624 3.2411 0.17616z" fill="#4e5e80" stroke-width="1.476"/></g></svg>
