<?xml version="1.0" encoding="UTF-8"?>
<svg width="100mm" height="100mm" version="1.1" viewBox="0 0 100 100" xml:space="preserve" xmlns="http://www.w3.org/2000/svg"><g transform="translate(-48.906 -66.743)"><path d="m59.137 156.15c-4.3361-1.387-7.5413-4.129-9.251-7.9138-0.93913-2.079-0.96848-3.0188-0.97863-31.331-9e-3 -25.111 0.0911-29.431 0.71672-30.928l0.72718-1.7404 20.348 20.268c18.987 18.912 20.533 20.336 23.105 21.283 3.4947 1.2869 6.7037 1.288 10.204 4e-3 2.5751-0.94471 4.0954-2.3454 23.103-21.287l20.347-20.276 0.72865 1.7439c0.62753 1.5019 0.7272 5.7948 0.71818 30.932-0.0108 28.312-0.0394 29.252-0.97862 31.331-1.2522 2.7721-3.8771 5.4722-6.8696 7.0663l-2.3814 1.2686-38.817 0.0941c-30.432 0.0738-39.229-0.0374-40.722-0.5153zm36.422-38.28c-1.4763-1.0174-39.682-39.169-39.447-39.391 0.09235-0.08731 1.332-0.50222 2.7548-0.92203 2.2768-0.67176 7.0771-0.76326 40.041-0.76326 32.963 0 37.764 0.09145 40.041 0.76326 1.4228 0.41981 2.6522 0.82446 2.7321 0.89924 0.20949 0.19629-36.91 37.379-38.875 38.941-1.9847 1.5779-5.3264 1.7961-7.2461 0.47315z" fill="#65625d" stroke-width="1.8001"/></g></svg>
