<?xml version="1.0" encoding="UTF-8"?>
<svg width="100mm" height="100mm" version="1.1" viewBox="0 0 100 100" xml:space="preserve" xmlns="http://www.w3.org/2000/svg"><g transform="translate(-13.743 -80.241)"><path d="m44.011 178.45c-28.797-12.834-39.241-49.448-21.698-76.068 6.4197-9.7417 16.041-16.898 27.607-20.534 4.5799-1.4397 6.002-1.6051 13.802-1.6051 7.8 0 9.2222 0.16538 13.802 1.6051 28.054 8.8188 42.886 38.382 33.309 66.393-4.6926 13.725-14.927 24.923-27.724 30.335-4.8719 2.0602-4.824 2.0536-6.0122 0.83509-0.75112-0.77027-0.91101-2.5787-0.91101-10.303 0-8.7098-0.09789-9.5674-1.391-12.187-0.91397-1.8514-1.1625-2.8836-0.72467-3.0097 0.3665-0.10563 2.1012-0.49315 3.8549-0.86117 10.433-2.1894 16.146-8.7472 17.514-20.105 0.77691-6.4491 0.05842-10.53-2.6727-15.181-1.822-3.1028-1.8885-3.4191-1.3591-6.4577 0.40974-2.3516 0.34886-4.0584-0.2306-6.465-0.78041-3.2412-0.80789-3.2714-3.1294-3.4466-1.8097-0.13654-3.4383 0.38598-7.1646 2.2986-4.7522 2.4392-4.8695 2.4656-8.045 1.8116-4.0795-0.84018-13.165-0.85547-17.788-0.0299-3.5065 0.6262-3.6066 0.605-8.423-1.7836-3.0516-1.5134-5.6904-2.4173-7.0567-2.4173-2.076 0-2.215 0.12315-2.8516 2.5267-0.38771 1.4636-0.53644 4.3596-0.35352 6.8831 0.29548 4.0763 0.20614 4.5337-1.3894 7.1137-2.2711 3.6724-2.8444 6.0375-2.84 11.716 0.0074 9.637 3.2797 16.472 9.8845 20.645 1.8797 1.1876 8.9093 3.4333 10.747 3.4333 1.6806 0 1.6865 0.0641 0.23097 2.5123-0.63652 1.0706-1.1583 2.5223-1.1595 3.2261-0.0044 2.5841-7.4165 3.5632-10.828 1.4302-1.0117-0.63264-2.882-2.5974-4.1561-4.3661-2.3748-3.2967-5.2209-5.1806-7.8265-5.1806-2.5102 0-2.3245 1.1184 0.66924 4.0323 1.5849 1.5426 3.6824 4.4485 4.6612 6.4576 2.5926 5.3216 4.6162 6.4539 11.535 6.4539h5.3619l6.69e-4 5.4784c6.13e-4 4.8083-0.13647 5.5537-1.1207 6.0938-1.4698 0.80666-1.4179 0.81749-6.1253-1.2805z" stroke-width=".56425"/></g></svg>
