<?xml version="1.0" encoding="UTF-8"?>
<svg width="100mm" height="100mm" version="1.1" viewBox="0 0 100 100" xml:space="preserve" xmlns="http://www.w3.org/2000/svg"><g transform="translate(-1.439e-7 -43.5)" fill="#e2a645"><path d="m17.095 143.4c-7.5855-1.0479-13.979-6.5322-16.352-14.027l-0.74346-2.348v-33.542c0-31.615 0.035238-33.658 0.61668-35.555 1.6971-5.5385 5.3352-9.9474 10.11-12.252 4.7361-2.2856 2.6582-2.1715 39.554-2.1715h33.521l2.4101 0.86927c6.6093 2.3838 10.837 6.7188 13.056 13.386 0.57507 1.7283 0.62012 3.8916 0.71375 34.256 0.06098 19.737-0.02771 33.116-0.2221 34.213-0.80335 4.4923-1.8307 6.9431-4.13 9.852-2.4758 3.1322-5.3459 5.0848-9.7767 6.6511-2.045 0.72293-2.1408 0.72503-34.901 0.7656-18.068 0.0238-33.303-0.0238-33.856-0.0983zm16.09-39.687v-20.293l-12.905-0.18224v20.244c0 11.134 0.10377 20.348 0.23062 20.475 0.12685 0.12677 3.0305 0.18976 6.4527 0.13984l6.2221-0.0911zm19.274 8.0229 0.16747-12.27c0.04596-2.1488 2.0146-4.9872 8.3783-5.0891 3.7353 0.14222 4.8834 1.1971 5.9814 3.5745 0.6945 1.5038 0.72871 2.0803 0.82381 13.896l0.09937 12.327h12.398l-0.097-15.01-0.09699-15.01c0.41761-5.5229-7.3242-11.036-14.236-11.469-4.5922-0.28722-8.4301 0.99422-12.215 4.0788l-1.8453 1.504-0.19638-4.8477h-11.732l-0.09264 19.622c-0.05107 10.792-0.0079 19.965 0.09225 20.384l0.18489 0.76227 12.218-0.183zm-22.867-34.707c3.6387-1.5209 5.5027-5.9897 3.9997-9.5891-0.56928-1.3634-2.2457-3.113-3.7109-3.873-1.5926-0.82616-4.4318-0.74174-6.34 0.18857-4.176 2.0358-5.2619 7.8018-2.1395 11.36 1.9807 2.2574 5.4364 3.0646 8.1907 1.9133z" fill="#e2a645" stroke-width="3.9604"/></g></svg>
