<?xml version="1.0" encoding="UTF-8"?>
<svg width="100mm" height="100mm" version="1.1" viewBox="0 0 100 100" xml:space="preserve" xmlns="http://www.w3.org/2000/svg"><g transform="translate(-76.731 -115.3)" fill="#e2a645"><path d="m100.37 215c-2.9385-0.6385-5.8703-2.8751-7.5283-5.7434-1.1613-2.009-1.8664-5.3842-1.7638-8.4426l0.04218-1.2548-2.2062-0.0964c-2.4712-0.10807-3.0134-0.32864-3.5408-1.44-0.44662-0.94119-0.46463-21.823-0.02052-22.684 0.56771-1.0979 1.1763-1.3381 3.5421-1.3986l2.1468-0.0547 0.05746-24.033c0.06407-26.745-0.03785-24.71 1.3897-27.737 1.1829-2.5084 2.8602-4.2572 5.3258-5.5528 2.4665-1.2961 1.6981-1.2571 24.797-1.2577 23.086-5.7e-4 22.013-0.0556 24.661 1.2682 1.485 0.74251 2.3647 1.5837 12.502 11.955 6.7653 6.921 7.0486 7.2805 8.0573 10.225l0.52902 1.5443 0.054 31.755c0.06 35.216 0.1213 33.363-1.199 36.191-1.6773 3.5925-4.5888 6.0075-8.1527 6.7627-1.8967 0.40187-56.844 0.39669-58.695-5e-3zm59.402-4.4608c2.1716-1.0423 3.692-2.9456 4.33-5.4207 0.27765-1.077 0.30344-4.3656 0.25747-32.816l-0.0511-31.619-0.4411-1.091c-0.82717-2.0458-0.50919-1.6882-11.592-13.035-4.9379-5.0557-5.8569-5.9105-6.9529-6.4668l-1.2629-0.64102h-43.067l-1.1038 0.51735c-2.1011 0.98476-3.7321 3.0028-4.4185 5.4668-0.22298 0.80091-0.26885 5.0068-0.26885 24.709v23.744l23.656 0.0964c22.496 0.0919 23.682 0.11377 24.194 0.44936 1.084 0.71032 1.0853 0.72473 1.0853 12.184 0 11.644 7e-3 11.575-1.2211 12.413l-0.63664 0.43433h-47.174l0.0046 1.9786c0.0018 1.0882 0.1254 2.5546 0.27467 3.2587 0.64801 3.0572 2.6673 5.4086 5.3753 6.2592 0.66178 0.20793 6.1221 0.24867 29.286 0.21887l28.473-0.0367zm-61.386-18.865v-2.7699l2.4612-0.11309c4.6816-0.21523 6.3153-1.4743 6.3153-4.8676 0-1.768-0.40077-2.7619-1.4809-3.6726-1.2363-1.0424-1.681-1.1348-5.9929-1.2444l-4.0058-0.10191 3.19e-4 7.7697 3.2e-4 7.7698h2.7025zm0-7.7506v-2.606h2.1419c2.3588 0 2.9541 0.19676 3.5265 1.1659 0.5046 0.85423 0.41687 2.3519-0.17921 3.0604-0.63572 0.75551-1.4923 0.98323-3.7035 0.98456l-1.7856 1e-3zm18.733 9.9194c1.5051-0.70237 2.4005-1.5588 3.072-2.9383 1.4243-2.926 1.1788-7.0318-0.55781-9.3295-1.5459-2.0454-2.9624-2.558-7.1559-2.5898l-2.9921-0.0228-0.0852 15.519 3.3244-0.0698c3.0934-0.065 3.3987-0.10443 4.3949-0.56938zm-4.8347-7.1011v-5.4243h1.454c1.6456 0 2.556 0.30367 3.2923 1.0982 0.9277 1.001 1.1173 1.7076 1.1298 4.2104 0.0114 2.1003-0.0335 2.4056-0.47102 3.2718-0.26543 0.52542-0.81627 1.2204-1.2241 1.5443-0.67968 0.53987-0.88487 0.59459-2.4612 0.65645l-1.7197 0.0675zm14.092 4.4123v-3.2899l3.0884 0.0262c1.6986 0.0137 3.0885-0.0253 3.0886-0.0882 9e-5 -0.0629 2.7e-4 -0.57047 4.3e-4 -1.1279l2.7e-4 -1.0134-6.1777 0.1149v-4.4583h7.1424v-2.3164h-9.8449v15.443h2.7025z" fill="#e2a645" stroke-width="2.28"/></g></svg>
