<?xml version="1.0" encoding="UTF-8"?>
<svg width="100mm" height="100mm" version="1.1" viewBox="0 0 100 100" xml:space="preserve" xmlns="http://www.w3.org/2000/svg"><g transform="translate(-65.544 -92.056)"><path d="m133.82 191.71c-5.7381-0.9877-10.137-2.7707-16.882-6.8425-10.049-6.0666-16.933-11.874-27.026-22.802-12.895-13.961-21.739-28.631-23.845-39.548-0.92881-4.8166-0.60854-10.316 0.84107-14.442 3.5382-10.07 12.447-16.015 24.002-16.015 4.2699 0 5.9021 0.67588 7.5966 3.1458 1.1713 1.7072 1.612 3.0608 3.3985 10.438 2.0091 8.2968 2.8934 13.146 2.5954 14.234-0.38245 1.3964-2.0392 2.7511-4.8474 3.9638-1.4784 0.63846-3.5419 1.5318-4.5854 1.9851-1.2396 0.53853-2.0271 1.0851-2.2715 1.5767-1.3485 2.7122 4.7234 14.157 11.769 22.182 2.9604 3.3722 8.5876 8.1414 13.554 11.487 4.867 3.2789 6.6468 4.1807 8.2703 4.1907 1.5452 0.01 2.4983-0.73645 4.3675-3.4182 2.7458-3.9395 4.8964-5.7268 6.8906-5.7268 1.3599 0 5.7314 1.3784 12.235 3.8578 11.254 4.2905 15.511 6.7619 15.633 9.0764 0.19833 3.7494-0.66008 7.1489-2.7346 10.83-3.2568 5.7785-8.6762 9.9747-14.947 11.574-2.6425 0.67376-10.721 0.81955-14.013 0.25289z" fill="#4e5e80" stroke-width="1.1291"/></g></svg>
